<svg id="visual" viewBox="0 0 900 450" width="900" height="450" xmlns="http://www.w3.org/2000/svg" xmlns:xlink="http://www.w3.org/1999/xlink" version="1.1"><g transform="translate(1000.8111088366519 347.87460758290183)"><path d="M323.9 -519.4C422.5 -504.1 507 -422.8 472.8 -325.2C438.7 -227.7 285.8 -113.8 246 -23C206.2 67.8 279.3 135.7 323.9 251.3C368.5 366.9 384.5 530.3 325.7 611.7C267 693.1 133.5 692.6 -8.2 706.9C-150 721.1 -300 750.3 -394.4 689.4C-488.8 628.6 -527.6 477.8 -588.9 347.9C-650.3 218 -734.1 109 -639.7 54.5C-545.3 0 -272.7 0 -189.6 -92.2C-106.5 -184.5 -213 -368.9 -213 -441.1C-213 -513.3 -106.5 -473.1 3.1 -478.5C112.7 -483.8 225.3 -534.6 323.9 -519.4" fill="#7f5af0"></path></g></svg>