<svg id="visual" viewBox="0 0 900 600" width="900" height="600" xmlns="http://www.w3.org/2000/svg" xmlns:xlink="http://www.w3.org/1999/xlink" version="1.1"><path d="M0 300L21.5 304.2C43 308.3 86 316.7 128.8 323.2C171.7 329.7 214.3 334.3 257.2 337.7C300 341 343 343 385.8 338C428.7 333 471.3 321 514.2 315.5C557 310 600 311 642.8 316.7C685.7 322.3 728.3 332.7 771.2 338C814 343.3 857 343.7 878.5 343.8L900 344L900 601L878.5 601C857 601 814 601 771.2 601C728.3 601 685.7 601 642.8 601C600 601 557 601 514.2 601C471.3 601 428.7 601 385.8 601C343 601 300 601 257.2 601C214.3 601 171.7 601 128.8 601C86 601 43 601 21.5 601L0 601Z" fill="#16161a"></path><path d="M0 376L21.5 376.2C43 376.3 86 376.7 128.8 377.3C171.7 378 214.3 379 257.2 371.2C300 363.3 343 346.7 385.8 337.8C428.7 329 471.3 328 514.2 335.7C557 343.3 600 359.7 642.8 367.8C685.7 376 728.3 376 771.2 369.3C814 362.7 857 349.3 878.5 342.7L900 336L900 601L878.5 601C857 601 814 601 771.2 601C728.3 601 685.7 601 642.8 601C600 601 557 601 514.2 601C471.3 601 428.7 601 385.8 601C343 601 300 601 257.2 601C214.3 601 171.7 601 128.8 601C86 601 43 601 21.5 601L0 601Z" fill="#21223a"></path><path d="M0 372L21.5 377.3C43 382.7 86 393.3 128.8 395.3C171.7 397.3 214.3 390.7 257.2 385.2C300 379.7 343 375.3 385.8 379.2C428.7 383 471.3 395 514.2 393.5C557 392 600 377 642.8 373C685.7 369 728.3 376 771.2 386C814 396 857 409 878.5 415.5L900 422L900 601L878.5 601C857 601 814 601 771.2 601C728.3 601 685.7 601 642.8 601C600 601 557 601 514.2 601C471.3 601 428.7 601 385.8 601C343 601 300 601 257.2 601C214.3 601 171.7 601 128.8 601C86 601 43 601 21.5 601L0 601Z" fill="#2d2f5d"></path><path d="M0 440L21.5 441.2C43 442.3 86 444.7 128.8 442.8C171.7 441 214.3 435 257.2 437.3C300 439.7 343 450.3 385.8 454C428.7 457.7 471.3 454.3 514.2 448.3C557 442.3 600 433.7 642.8 426.2C685.7 418.7 728.3 412.3 771.2 417.8C814 423.3 857 440.7 878.5 449.3L900 458L900 601L878.5 601C857 601 814 601 771.2 601C728.3 601 685.7 601 642.8 601C600 601 557 601 514.2 601C471.3 601 428.7 601 385.8 601C343 601 300 601 257.2 601C214.3 601 171.7 601 128.8 601C86 601 43 601 21.5 601L0 601Z" fill="#3b3b81"></path><path d="M0 453L21.5 457.8C43 462.7 86 472.3 128.8 476.3C171.7 480.3 214.3 478.7 257.2 480.3C300 482 343 487 385.8 482.2C428.7 477.3 471.3 462.7 514.2 461.5C557 460.3 600 472.7 642.8 479.7C685.7 486.7 728.3 488.3 771.2 484.5C814 480.7 857 471.3 878.5 466.7L900 462L900 601L878.5 601C857 601 814 601 771.2 601C728.3 601 685.7 601 642.8 601C600 601 557 601 514.2 601C471.3 601 428.7 601 385.8 601C343 601 300 601 257.2 601C214.3 601 171.7 601 128.8 601C86 601 43 601 21.5 601L0 601Z" fill="#4d46a6"></path><path d="M0 536L21.5 533.2C43 530.3 86 524.7 128.8 524.5C171.7 524.3 214.3 529.7 257.2 529C300 528.3 343 521.7 385.8 519.7C428.7 517.7 471.3 520.3 514.2 516.5C557 512.7 600 502.3 642.8 500.2C685.7 498 728.3 504 771.2 503.5C814 503 857 496 878.5 492.5L900 489L900 601L878.5 601C857 601 814 601 771.2 601C728.3 601 685.7 601 642.8 601C600 601 557 601 514.2 601C471.3 601 428.7 601 385.8 601C343 601 300 601 257.2 601C214.3 601 171.7 601 128.8 601C86 601 43 601 21.5 601L0 601Z" fill="#6451cb"></path><path d="M0 576L21.5 568.8C43 561.7 86 547.3 128.8 540.8C171.7 534.3 214.3 535.7 257.2 541.5C300 547.3 343 557.7 385.8 558C428.7 558.3 471.3 548.7 514.2 547.3C557 546 600 553 642.8 555.2C685.7 557.3 728.3 554.7 771.2 551.2C814 547.7 857 543.3 878.5 541.2L900 539L900 601L878.5 601C857 601 814 601 771.2 601C728.3 601 685.7 601 642.8 601C600 601 557 601 514.2 601C471.3 601 428.7 601 385.8 601C343 601 300 601 257.2 601C214.3 601 171.7 601 128.8 601C86 601 43 601 21.5 601L0 601Z" fill="#7f5af0"></path></svg>